# xmcd
#
# Track frame offsets: 
#        150
#        15669
#        28689
#        42466
#        50743
#        65828
#        77290
#        92130
#        99346
#        113676
#
# Disc length: 2232 seconds
#
# Revision: 0
# Processed by: cddbd v1.5.2PL0 Copyright (c) Steve Scherf et al.
# Submitted via: ExactAudioCopy v0.95a5
#
DISCID=7a08b60a
DTITLE=Max Koffler - Taboo
DYEAR=2007
DGENRE=
TTITLE0=Taboo
TTITLE1=One-Way Highway
TTITLE2=Treasure
TTITLE3=When Do I Know
TTITLE4=Catch Me
TTITLE5=Colors
TTITLE6=Long Lost Island
TTITLE7=What If The End
TTITLE8=Can I Hope
TTITLE9=Let Me Go (3'32") and (Ghost Track) ab 8'31" (3'24")
EXTD=
EXTT0=
EXTT1=
EXTT2=
EXTT3=
EXTT4=
EXTT5=
EXTT6=
EXTT7=
EXTT8=
EXTT9=
PLAYORDER=
